M48
; DRILL file {KiCad 9.0.6} date 2026-07-20T12:39:54-0500
; FORMAT={-:-/ absolute / metric / decimal}
; #@! TF.CreationDate,2026-07-20T12:39:54-05:00
; #@! TF.GenerationSoftware,Kicad,Pcbnew,9.0.6
; #@! TF.FileFunction,Plated,1,4,PTH
FMAT,2
METRIC
; #@! TA.AperFunction,Plated,PTH,ViaDrill
T1C0.300
; #@! TA.AperFunction,Plated,PTH,ComponentDrill
T2C0.650
; #@! TA.AperFunction,Plated,PTH,ComponentDrill
T3C1.000
; #@! TA.AperFunction,Plated,PTH,ComponentDrill
T4C1.300
%
G90
G05
T1
X107.36Y-71.5
X108.13Y-79.32
X108.45Y-104.86
X108.45Y-107.86
X108.458Y-127.995
X108.458Y-129.995
X108.458Y-131.995
X108.458Y-133.995
X108.458Y-135.995
X109.91Y-99.75
X110.458Y-127.995
X110.458Y-129.995
X110.458Y-131.995
X110.458Y-133.995
X110.458Y-135.995
X111.23Y-77.96
X111.45Y-104.86
X111.45Y-107.86
X111.96Y-113.39
X112.458Y-127.995
X112.458Y-129.995
X112.458Y-131.995
X112.458Y-133.995
X112.458Y-135.995
X113.03Y-85.27
X113.17Y-97.11
X113.235Y-90.455
X114.458Y-127.995
X114.458Y-129.995
X114.458Y-131.995
X114.458Y-133.995
X114.458Y-135.995
X114.485Y-93.62
X115.02Y-117.7
X115.02Y-120.7
X116.11Y-95.3
X116.458Y-127.995
X116.458Y-129.995
X116.458Y-131.995
X116.458Y-133.995
X116.458Y-135.995
X116.49Y-79.04
X116.66Y-104.66
X116.68Y-108.49
X118.02Y-117.7
X118.02Y-120.7
X118.58Y-81.77
X119.42Y-103.88
X120.809Y-101.121
X121.3Y-83.712
X121.3Y-84.442
X121.3Y-86.032
X121.33Y-86.612
X121.99Y-93.76
X122.238Y-91.462
X122.38Y-98.331
X122.746Y-99.984
X123.06Y-115.72
X123.73Y-94.95
X123.93Y-103.87
X123.99Y-91.09
X124.18Y-97.33
X124.3Y-98.69
X124.88Y-104.32
X125.03Y-90.71
X125.07Y-97.1
X125.12Y-85.828
X125.14Y-98.24
X125.148Y-86.857
X125.17Y-84.688
X125.27Y-77.38
X125.275Y-79.747
X125.29Y-136.025
X125.66Y-78.94
X125.91Y-115.6
X125.93Y-102.6
X125.93Y-89.09
X125.931Y-86.692
X126.07Y-79.84
X126.095Y-95.38
X126.095Y-96.18
X126.29Y-103.62
X126.67Y-80.478
X126.71Y-100.96
X126.817Y-86.752
X126.82Y-136.565
X126.87Y-94.75
X127.028Y-89.04
X127.09Y-86.0
X127.15Y-115.3
X127.16Y-96.541
X127.27Y-81.02
X127.38Y-97.31
X127.52Y-106.44
X128.06Y-81.24
X128.117Y-109.04
X128.23Y-115.26
X128.63Y-106.16
X128.84Y-77.93
X128.854Y-81.342
X128.86Y-134.59
X128.86Y-135.29
X128.87Y-133.87
X128.96Y-108.73
X129.027Y-104.083
X129.47Y-115.55
X129.75Y-79.62
X129.864Y-80.506
X130.1Y-85.68
X130.186Y-88.663
X130.22Y-89.8
X130.24Y-87.76
X130.25Y-76.82
X130.26Y-92.77
X130.32Y-93.8
X130.33Y-112.06
X130.35Y-91.17
X130.533Y-94.571
X130.78Y-110.23
X130.83Y-99.11
X131.134Y-85.124
X131.36Y-75.12
X131.38Y-76.76
X131.48Y-112.07
X131.57Y-106.53
X132.02Y-85.42
X132.11Y-100.21
X132.13Y-81.77
X132.33Y-114.3
X132.83Y-85.42
X133.0Y-106.69
X133.16Y-76.6
X133.212Y-82.417
X133.59Y-114.3
X133.88Y-99.74
X133.89Y-78.9
X134.01Y-82.47
X134.2Y-87.93
X134.49Y-76.88
X134.502Y-111.232
X134.502Y-112.032
X134.52Y-92.11
X134.55Y-105.54
X134.61Y-81.78
X134.76Y-114.37
X134.77Y-84.66
X134.89Y-95.31
X134.915Y-99.574
X135.654Y-99.88
X136.315Y-103.975
X136.33Y-126.85
X136.37Y-129.979
X136.423Y-99.42
X136.44Y-107.87
X136.95Y-128.44
X137.0Y-109.73
X137.056Y-130.075
X137.157Y-99.103
X137.262Y-105.548
X137.51Y-104.21
X137.65Y-128.901
X137.869Y-98.739
X137.96Y-78.87
X138.13Y-81.8
X138.301Y-103.309
X138.33Y-108.88
X138.38Y-90.04
X138.38Y-91.04
X138.38Y-92.04
X138.564Y-98.342
X138.657Y-77.23
X138.86Y-82.74
X138.99Y-72.44
X139.05Y-133.86
X139.05Y-136.86
X139.18Y-97.832
X139.38Y-90.04
X139.38Y-91.04
X139.38Y-92.04
X139.49Y-104.24
X139.65Y-81.77
X139.78Y-98.43
X139.797Y-77.23
X140.21Y-83.89
X140.371Y-72.121
X140.38Y-90.04
X140.38Y-91.04
X140.38Y-92.04
X140.38Y-99.179
X140.52Y-81.8
X140.54Y-127.41
X140.64Y-104.25
X140.66Y-121.43
X140.98Y-99.708
X141.211Y-72.129
X141.46Y-108.81
X141.52Y-109.73
X141.75Y-97.08
X141.75Y-98.35
X141.75Y-100.07
X142.05Y-133.86
X142.05Y-136.86
X142.099Y-72.09
X142.63Y-100.35
X142.94Y-86.64
X142.94Y-118.79
X143.06Y-129.2
X143.13Y-96.42
X143.19Y-91.62
X143.211Y-72.101
X143.394Y-100.111
X143.51Y-87.6
X143.57Y-85.78
X143.64Y-105.74
X143.71Y-128.7
X143.73Y-93.1
X143.79Y-88.39
X143.93Y-116.35
X144.05Y-90.13
X144.087Y-99.713
X144.307Y-129.856
X144.59Y-85.09
X144.605Y-99.103
X144.82Y-121.9
X144.82Y-124.9
X144.84Y-127.3
X144.867Y-130.153
X145.135Y-98.504
X145.66Y-85.95
X145.816Y-99.06
X145.89Y-90.77
X145.95Y-76.67
X146.13Y-81.77
X146.25Y-109.75
X146.37Y-96.08
X146.39Y-108.77
X146.685Y-103.09
X146.767Y-92.47
X147.09Y-127.19
X147.09Y-130.19
X147.24Y-85.73
X147.28Y-105.48
X147.341Y-100.379
X147.658Y-89.35
X147.82Y-121.9
X147.82Y-124.9
X147.88Y-119.5
X147.907Y-92.47
X147.93Y-84.04
X147.983Y-88.113
X148.06Y-77.57
X148.09Y-76.33
X148.37Y-85.73
X148.4Y-104.29
X148.408Y-89.781
X148.537Y-87.536
X148.55Y-96.35
X148.57Y-93.23
X148.58Y-84.89
X148.58Y-94.24
X148.583Y-83.43
X148.6Y-97.07
X148.649Y-75.758
X148.69Y-90.53
X148.7Y-82.74
X149.04Y-80.32
X149.13Y-136.8
X149.186Y-79.314
X149.29Y-104.33
X149.3Y-78.5
X149.555Y-75.815
X149.62Y-116.69
X149.82Y-102.71
X150.09Y-127.19
X150.09Y-130.19
X150.484Y-75.896
X150.73Y-102.7
X150.84Y-69.528
X151.07Y-65.98
X151.31Y-110.84
X151.32Y-85.5
X151.386Y-115.764
X151.393Y-75.831
X151.456Y-99.009
X151.52Y-91.66
X151.63Y-99.79
X151.7Y-96.07
X151.71Y-68.877
X151.853Y-98.283
X151.87Y-112.05
X152.054Y-75.379
X152.391Y-97.683
X152.43Y-89.88
X152.44Y-79.18
X152.51Y-78.11
X152.52Y-83.2
X152.57Y-90.69
X152.63Y-74.73
X152.737Y-84.114
X152.753Y-73.94
X153.037Y-96.22
X153.335Y-123.975
X153.41Y-93.26
X153.42Y-92.11
X153.622Y-73.883
X153.8Y-99.9
X154.0Y-115.12
X154.01Y-65.35
X154.2Y-82.41
X154.25Y-81.34
X154.29Y-136.97
X154.399Y-74.074
X154.42Y-109.61
X154.6Y-118.25
X154.73Y-83.63
X154.965Y-112.663
X155.077Y-97.03
X155.14Y-115.09
X155.215Y-123.995
X155.69Y-105.54
X156.3Y-77.08
X156.45Y-94.19
X156.54Y-95.27
X157.47Y-87.47
X157.58Y-115.6
X157.72Y-65.24
X158.97Y-127.06
X158.97Y-130.06
X159.47Y-136.94
X159.68Y-72.66
X161.47Y-69.99
X161.58Y-66.88
X161.97Y-127.06
X161.97Y-130.06
T3
X108.99Y-119.26
X109.0Y-123.63
X109.56Y-82.35
X109.56Y-84.89
X109.56Y-87.43
X109.56Y-89.97
X109.56Y-92.51
X109.56Y-95.05
X109.6Y-74.71
X109.8Y-66.08
X109.8Y-68.62
X112.34Y-66.08
X112.34Y-68.62
X114.88Y-66.08
X114.88Y-68.62
X117.42Y-66.08
X117.42Y-68.62
X119.96Y-66.08
X119.96Y-68.62
X122.5Y-66.08
X122.5Y-68.62
X125.04Y-66.08
X125.04Y-68.62
X127.58Y-66.08
X127.58Y-68.62
X130.12Y-66.08
X130.12Y-68.62
X132.66Y-66.08
X132.66Y-68.62
X135.2Y-66.08
X135.2Y-68.62
X137.74Y-66.08
X137.74Y-68.62
X140.28Y-66.08
X140.28Y-68.62
X142.82Y-66.08
X142.82Y-68.62
X145.36Y-66.08
X145.36Y-68.62
X147.9Y-66.08
X147.9Y-68.62
X160.0Y-75.17
X160.0Y-77.71
X160.0Y-80.25
X160.0Y-82.79
X160.0Y-85.33
X160.0Y-87.87
X160.0Y-90.41
X160.0Y-92.95
X160.0Y-95.49
X160.0Y-98.03
X160.0Y-100.57
X160.0Y-103.11
X160.0Y-105.65
X160.0Y-108.19
X160.0Y-110.73
X160.0Y-113.27
X160.0Y-115.81
X160.0Y-118.35
X161.45Y-123.98
X162.54Y-75.17
X162.54Y-77.71
X162.54Y-80.25
X162.54Y-82.79
X162.54Y-85.33
X162.54Y-87.87
X162.54Y-90.41
X162.54Y-92.95
X162.54Y-95.49
X162.54Y-98.03
X162.54Y-100.57
X162.54Y-103.11
X162.54Y-105.65
X162.54Y-108.19
X162.54Y-110.73
X162.54Y-113.27
X162.54Y-115.81
X162.54Y-118.35
T4
X149.19Y-133.55
X154.27Y-133.55
X159.35Y-133.55
T2
G00X136.18Y-131.3
M15
G01X136.18Y-132.4
M16
G05
G00X136.18Y-135.6
M15
G01X136.18Y-136.4
M16
G05
G00X144.82Y-131.3
M15
G01X144.82Y-132.4
M16
G05
G00X144.82Y-135.6
M15
G01X144.82Y-136.4
M16
G05
M30
