%TF.GenerationSoftware,KiCad,Pcbnew,9.0.6*%
%TF.CreationDate,2026-07-20T12:39:40-05:00*%
%TF.ProjectId,STM32H755_DevBoard,53544d33-3248-4373-9535-5f446576426f,rev?*%
%TF.SameCoordinates,Original*%
%TF.FileFunction,Paste,Top*%
%TF.FilePolarity,Positive*%
%FSLAX46Y46*%
G04 Gerber Fmt 4.6, Leading zero omitted, Abs format (unit mm)*
G04 Created by KiCad (PCBNEW 9.0.6) date 2026-07-20 12:39:40*
%MOMM*%
%LPD*%
G01*
G04 APERTURE LIST*
G04 Aperture macros list*
%AMRoundRect*
0 Rectangle with rounded corners*
0 $1 Rounding radius*
0 $2 $3 $4 $5 $6 $7 $8 $9 X,Y pos of 4 corners*
0 Add a 4 corners polygon primitive as box body*
4,1,4,$2,$3,$4,$5,$6,$7,$8,$9,$2,$3,0*
0 Add four circle primitives for the rounded corners*
1,1,$1+$1,$2,$3*
1,1,$1+$1,$4,$5*
1,1,$1+$1,$6,$7*
1,1,$1+$1,$8,$9*
0 Add four rect primitives between the rounded corners*
20,1,$1+$1,$2,$3,$4,$5,0*
20,1,$1+$1,$4,$5,$6,$7,0*
20,1,$1+$1,$6,$7,$8,$9,0*
20,1,$1+$1,$8,$9,$2,$3,0*%
G04 Aperture macros list end*
%ADD10RoundRect,0.250000X-0.337500X-0.475000X0.337500X-0.475000X0.337500X0.475000X-0.337500X0.475000X0*%
%ADD11RoundRect,0.090000X0.090000X-0.139000X0.090000X0.139000X-0.090000X0.139000X-0.090000X-0.139000X0*%
%ADD12RoundRect,0.090000X0.139000X0.090000X-0.139000X0.090000X-0.139000X-0.090000X0.139000X-0.090000X0*%
%ADD13RoundRect,0.090000X-0.139000X-0.090000X0.139000X-0.090000X0.139000X0.090000X-0.139000X0.090000X0*%
%ADD14RoundRect,0.090000X-0.090000X0.139000X-0.090000X-0.139000X0.090000X-0.139000X0.090000X0.139000X0*%
%ADD15R,1.500000X0.550000*%
%ADD16R,2.200000X1.200000*%
%ADD17R,1.500000X1.600000*%
%ADD18R,1.800000X1.200000*%
%ADD19R,1.600000X0.700000*%
%ADD20RoundRect,0.155000X-0.212500X-0.155000X0.212500X-0.155000X0.212500X0.155000X-0.212500X0.155000X0*%
%ADD21RoundRect,0.250000X-1.400000X-1.000000X1.400000X-1.000000X1.400000X1.000000X-1.400000X1.000000X0*%
%ADD22RoundRect,0.155000X0.212500X0.155000X-0.212500X0.155000X-0.212500X-0.155000X0.212500X-0.155000X0*%
%ADD23R,0.406400X1.473200*%
%ADD24RoundRect,0.155000X0.155000X-0.212500X0.155000X0.212500X-0.155000X0.212500X-0.155000X-0.212500X0*%
%ADD25RoundRect,0.237500X-0.237500X0.300000X-0.237500X-0.300000X0.237500X-0.300000X0.237500X0.300000X0*%
%ADD26RoundRect,0.250000X1.045000X-0.785000X1.045000X0.785000X-1.045000X0.785000X-1.045000X-0.785000X0*%
%ADD27RoundRect,0.237500X-0.300000X-0.237500X0.300000X-0.237500X0.300000X0.237500X-0.300000X0.237500X0*%
%ADD28RoundRect,0.155000X0.259862X-0.040659X-0.040659X0.259862X-0.259862X0.040659X0.040659X-0.259862X0*%
%ADD29R,0.304800X0.914400*%
%ADD30R,2.489200X1.752600*%
%ADD31RoundRect,0.075000X0.662500X0.075000X-0.662500X0.075000X-0.662500X-0.075000X0.662500X-0.075000X0*%
%ADD32RoundRect,0.075000X0.075000X0.662500X-0.075000X0.662500X-0.075000X-0.662500X0.075000X-0.662500X0*%
%ADD33RoundRect,0.250000X1.400000X1.000000X-1.400000X1.000000X-1.400000X-1.000000X1.400000X-1.000000X0*%
%ADD34RoundRect,0.250000X0.350000X-0.450000X0.350000X0.450000X-0.350000X0.450000X-0.350000X-0.450000X0*%
%ADD35R,0.600000X1.150000*%
%ADD36R,0.300000X1.150000*%
%ADD37RoundRect,0.237500X-0.287500X-0.237500X0.287500X-0.237500X0.287500X0.237500X-0.287500X0.237500X0*%
%ADD38RoundRect,0.160000X0.222500X0.160000X-0.222500X0.160000X-0.222500X-0.160000X0.222500X-0.160000X0*%
%ADD39R,3.810000X0.965200*%
%ADD40R,10.668000X10.769600*%
%ADD41RoundRect,0.155000X-0.155000X0.212500X-0.155000X-0.212500X0.155000X-0.212500X0.155000X0.212500X0*%
%ADD42RoundRect,0.250000X-0.475000X0.337500X-0.475000X-0.337500X0.475000X-0.337500X0.475000X0.337500X0*%
%ADD43R,0.558800X1.181100*%
G04 APERTURE END LIST*
D10*
%TO.C,C3*%
X153352500Y-119590000D03*
X155427500Y-119590000D03*
%TD*%
D11*
%TO.C,R35*%
X153430000Y-79530000D03*
X153430000Y-78665000D03*
%TD*%
D12*
%TO.C,R33*%
X134665000Y-104870000D03*
X133800000Y-104870000D03*
%TD*%
D13*
%TO.C,R32*%
X129335000Y-104930000D03*
X130200000Y-104930000D03*
%TD*%
D12*
%TO.C,R31*%
X131740000Y-105690000D03*
X130875000Y-105690000D03*
%TD*%
D13*
%TO.C,R30*%
X122920000Y-93760000D03*
X123785000Y-93760000D03*
%TD*%
%TO.C,R29*%
X124555000Y-94590000D03*
X125420000Y-94590000D03*
%TD*%
D12*
%TO.C,R28*%
X136240000Y-105620000D03*
X135375000Y-105620000D03*
%TD*%
D13*
%TO.C,R25*%
X151055000Y-113640000D03*
X151920000Y-113640000D03*
%TD*%
D14*
%TO.C,R24*%
X132930000Y-104967500D03*
X132930000Y-105832500D03*
%TD*%
%TO.C,R23*%
X130030000Y-103155000D03*
X130030000Y-104020000D03*
%TD*%
%TO.C,R22*%
X130840000Y-103155000D03*
X130840000Y-104020000D03*
%TD*%
%TO.C,R21*%
X133430000Y-103150000D03*
X133430000Y-104015000D03*
%TD*%
%TO.C,R20*%
X131660000Y-103147500D03*
X131660000Y-104012500D03*
%TD*%
D12*
%TO.C,R19*%
X127070000Y-93830000D03*
X126205000Y-93830000D03*
%TD*%
%TO.C,R18*%
X127070000Y-93080000D03*
X126205000Y-93080000D03*
%TD*%
D14*
%TO.C,R9*%
X150830000Y-70297500D03*
X150830000Y-71162500D03*
%TD*%
D13*
%TO.C,R8*%
X152462500Y-94290000D03*
X153327500Y-94290000D03*
%TD*%
%TO.C,R7*%
X152405000Y-95300000D03*
X153270000Y-95300000D03*
%TD*%
D14*
%TO.C,R6*%
X125120000Y-128182414D03*
X125120000Y-129047414D03*
%TD*%
D13*
%TO.C,R5*%
X143245000Y-127300000D03*
X144110000Y-127300000D03*
%TD*%
D12*
%TO.C,R4*%
X138110000Y-126860000D03*
X137245000Y-126860000D03*
%TD*%
%TO.C,R3*%
X150845000Y-121710000D03*
X149980000Y-121710000D03*
%TD*%
%TO.C,R2*%
X158650000Y-121630000D03*
X157785000Y-121630000D03*
%TD*%
D14*
%TO.C,R1*%
X143640000Y-104095000D03*
X143640000Y-104960000D03*
%TD*%
D15*
%TO.C,SW2*%
X157720000Y-66795000D03*
X157720000Y-70045000D03*
%TD*%
%TO.C,SW1*%
X154000000Y-66865000D03*
X154000000Y-70115000D03*
%TD*%
D16*
%TO.C,J2*%
X111970000Y-115250000D03*
D17*
X121520000Y-114350000D03*
D16*
X111970000Y-99750000D03*
D18*
X121270000Y-99750000D03*
D19*
X122570000Y-100950000D03*
X122570000Y-102050000D03*
X122570000Y-103150000D03*
X122570000Y-104250000D03*
X122570000Y-105350000D03*
X122570000Y-106450000D03*
X122570000Y-107550000D03*
X122570000Y-108650000D03*
X122570000Y-109750000D03*
%TD*%
D20*
%TO.C,C12*%
X146135000Y-104620000D03*
X147270000Y-104620000D03*
%TD*%
D21*
%TO.C,CR1*%
X133590000Y-116970000D03*
X133590000Y-123770000D03*
%TD*%
D22*
%TO.C,C14*%
X124280000Y-91910000D03*
X123145000Y-91910000D03*
%TD*%
D23*
%TO.C,U6*%
X153650001Y-126406000D03*
X154949999Y-126406000D03*
X154300000Y-124374000D03*
%TD*%
D24*
%TO.C,C26*%
X152540000Y-93260000D03*
X152540000Y-92125000D03*
%TD*%
D20*
%TO.C,C15*%
X138662500Y-78120000D03*
X139797500Y-78120000D03*
%TD*%
%TO.C,C22*%
X149325000Y-101870000D03*
X150460000Y-101870000D03*
%TD*%
D25*
%TO.C,C5*%
X126810000Y-133679914D03*
X126810000Y-135404914D03*
%TD*%
D26*
%TO.C,C6*%
X127690000Y-123950000D03*
X127690000Y-117710000D03*
%TD*%
D24*
%TO.C,C42*%
X126050000Y-98225000D03*
X126050000Y-97090000D03*
%TD*%
D20*
%TO.C,C29*%
X150325000Y-79180000D03*
X151460000Y-79180000D03*
%TD*%
D27*
%TO.C,C38*%
X152565000Y-110840000D03*
X154290000Y-110840000D03*
%TD*%
D20*
%TO.C,C17*%
X153032500Y-97030000D03*
X154167500Y-97030000D03*
%TD*%
D24*
%TO.C,C32*%
X125940000Y-91140000D03*
X125940000Y-90005000D03*
%TD*%
%TO.C,C35*%
X124880000Y-106330000D03*
X124880000Y-105195000D03*
%TD*%
D20*
%TO.C,C44*%
X130345000Y-111220000D03*
X131480000Y-111220000D03*
%TD*%
D24*
%TO.C,C31*%
X127070000Y-91130000D03*
X127070000Y-89995000D03*
%TD*%
D20*
%TO.C,C25*%
X145940000Y-77600000D03*
X147075000Y-77600000D03*
%TD*%
D28*
%TO.C,C39*%
X129410000Y-108010000D03*
X128607434Y-107207434D03*
%TD*%
D10*
%TO.C,C13*%
X142732500Y-109330000D03*
X144807500Y-109330000D03*
%TD*%
D28*
%TO.C,C20*%
X125920000Y-100220000D03*
X125117434Y-99417434D03*
%TD*%
D22*
%TO.C,C24*%
X130390000Y-78770000D03*
X129255000Y-78770000D03*
%TD*%
D29*
%TO.C,U2*%
X155560000Y-113592800D03*
X154910002Y-113592800D03*
X154260000Y-113592800D03*
X153610002Y-113592800D03*
X153610002Y-116590000D03*
X154260000Y-116590000D03*
X154910002Y-116590000D03*
X155560000Y-116590000D03*
D30*
X154585001Y-115091400D03*
%TD*%
D22*
%TO.C,C21*%
X140635000Y-103380000D03*
X139500000Y-103380000D03*
%TD*%
D31*
%TO.C,U1*%
X150042500Y-99790000D03*
X150042500Y-99290000D03*
X150042500Y-98790000D03*
X150042500Y-98290000D03*
X150042500Y-97790000D03*
X150042500Y-97290000D03*
X150042500Y-96790000D03*
X150042500Y-96290000D03*
X150042500Y-95790000D03*
X150042500Y-95290000D03*
X150042500Y-94790000D03*
X150042500Y-94290000D03*
X150042500Y-93790000D03*
X150042500Y-93290000D03*
X150042500Y-92790000D03*
X150042500Y-92290000D03*
X150042500Y-91790000D03*
X150042500Y-91290000D03*
X150042500Y-90790000D03*
X150042500Y-90290000D03*
X150042500Y-89790000D03*
X150042500Y-89290000D03*
X150042500Y-88790000D03*
X150042500Y-88290000D03*
X150042500Y-87790000D03*
X150042500Y-87290000D03*
X150042500Y-86790000D03*
X150042500Y-86290000D03*
X150042500Y-85790000D03*
X150042500Y-85290000D03*
X150042500Y-84790000D03*
X150042500Y-84290000D03*
X150042500Y-83790000D03*
X150042500Y-83290000D03*
X150042500Y-82790000D03*
X150042500Y-82290000D03*
D32*
X148130000Y-80377500D03*
X147630000Y-80377500D03*
X147130000Y-80377500D03*
X146630000Y-80377500D03*
X146130000Y-80377500D03*
X145630000Y-80377500D03*
X145130000Y-80377500D03*
X144630000Y-80377500D03*
X144130000Y-80377500D03*
X143630000Y-80377500D03*
X143130000Y-80377500D03*
X142630000Y-80377500D03*
X142130000Y-80377500D03*
X141630000Y-80377500D03*
X141130000Y-80377500D03*
X140630000Y-80377500D03*
X140130000Y-80377500D03*
X139630000Y-80377500D03*
X139130000Y-80377500D03*
X138630000Y-80377500D03*
X138130000Y-80377500D03*
X137630000Y-80377500D03*
X137130000Y-80377500D03*
X136630000Y-80377500D03*
X136130000Y-80377500D03*
X135630000Y-80377500D03*
X135130000Y-80377500D03*
X134630000Y-80377500D03*
X134130000Y-80377500D03*
X133630000Y-80377500D03*
X133130000Y-80377500D03*
X132630000Y-80377500D03*
X132130000Y-80377500D03*
X131630000Y-80377500D03*
X131130000Y-80377500D03*
X130630000Y-80377500D03*
D31*
X128717500Y-82290000D03*
X128717500Y-82790000D03*
X128717500Y-83290000D03*
X128717500Y-83790000D03*
X128717500Y-84290000D03*
X128717500Y-84790000D03*
X128717500Y-85290000D03*
X128717500Y-85790000D03*
X128717500Y-86290000D03*
X128717500Y-86790000D03*
X128717500Y-87290000D03*
X128717500Y-87790000D03*
X128717500Y-88290000D03*
X128717500Y-88790000D03*
X128717500Y-89290000D03*
X128717500Y-89790000D03*
X128717500Y-90290000D03*
X128717500Y-90790000D03*
X128717500Y-91290000D03*
X128717500Y-91790000D03*
X128717500Y-92290000D03*
X128717500Y-92790000D03*
X128717500Y-93290000D03*
X128717500Y-93790000D03*
X128717500Y-94290000D03*
X128717500Y-94790000D03*
X128717500Y-95290000D03*
X128717500Y-95790000D03*
X128717500Y-96290000D03*
X128717500Y-96790000D03*
X128717500Y-97290000D03*
X128717500Y-97790000D03*
X128717500Y-98290000D03*
X128717500Y-98790000D03*
X128717500Y-99290000D03*
X128717500Y-99790000D03*
D32*
X130630000Y-101702500D03*
X131130000Y-101702500D03*
X131630000Y-101702500D03*
X132130000Y-101702500D03*
X132630000Y-101702500D03*
X133130000Y-101702500D03*
X133630000Y-101702500D03*
X134130000Y-101702500D03*
X134630000Y-101702500D03*
X135130000Y-101702500D03*
X135630000Y-101702500D03*
X136130000Y-101702500D03*
X136630000Y-101702500D03*
X137130000Y-101702500D03*
X137630000Y-101702500D03*
X138130000Y-101702500D03*
X138630000Y-101702500D03*
X139130000Y-101702500D03*
X139630000Y-101702500D03*
X140130000Y-101702500D03*
X140630000Y-101702500D03*
X141130000Y-101702500D03*
X141630000Y-101702500D03*
X142130000Y-101702500D03*
X142630000Y-101702500D03*
X143130000Y-101702500D03*
X143630000Y-101702500D03*
X144130000Y-101702500D03*
X144630000Y-101702500D03*
X145130000Y-101702500D03*
X145630000Y-101702500D03*
X146130000Y-101702500D03*
X146630000Y-101702500D03*
X147130000Y-101702500D03*
X147630000Y-101702500D03*
X148130000Y-101702500D03*
%TD*%
D22*
%TO.C,C1*%
X154280000Y-112050000D03*
X153145000Y-112050000D03*
%TD*%
%TO.C,C41*%
X131385000Y-77700000D03*
X130250000Y-77700000D03*
%TD*%
D33*
%TO.C,CR2*%
X131170000Y-136170000D03*
X131170000Y-129370000D03*
%TD*%
D20*
%TO.C,C16*%
X135990000Y-103310000D03*
X137125000Y-103310000D03*
%TD*%
D24*
%TO.C,C9*%
X151710000Y-71007500D03*
X151710000Y-69872500D03*
%TD*%
D34*
%TO.C,Y1*%
X155520000Y-88590000D03*
X155520000Y-86390000D03*
X153820000Y-86390000D03*
X153820000Y-88590000D03*
%TD*%
D20*
%TO.C,C30*%
X150355000Y-78100000D03*
X151490000Y-78100000D03*
%TD*%
%TO.C,C28*%
X152005000Y-82420000D03*
X153140000Y-82420000D03*
%TD*%
%TO.C,C8*%
X155505000Y-90200000D03*
X156640000Y-90200000D03*
%TD*%
D35*
%TO.C,J1*%
X137300000Y-131275000D03*
X138100000Y-131275000D03*
D36*
X139250000Y-131275000D03*
X140250000Y-131275000D03*
X140750000Y-131275000D03*
X141750000Y-131275000D03*
D35*
X143700000Y-131275000D03*
D36*
X142250000Y-131275000D03*
X141250000Y-131275000D03*
X139750000Y-131275000D03*
X138750000Y-131275000D03*
D35*
X142900000Y-131275000D03*
%TD*%
D37*
%TO.C,FB1*%
X153280000Y-76620000D03*
X155030000Y-76620000D03*
%TD*%
D24*
%TO.C,C19*%
X151690000Y-84707500D03*
X151690000Y-83572500D03*
%TD*%
%TO.C,C18*%
X151600000Y-90697500D03*
X151600000Y-89562500D03*
%TD*%
D20*
%TO.C,C11*%
X132975000Y-78030000D03*
X134110000Y-78030000D03*
%TD*%
D25*
%TO.C,C34*%
X126290000Y-104717500D03*
X126290000Y-106442500D03*
%TD*%
D20*
%TO.C,C27*%
X151995000Y-81340000D03*
X153130000Y-81340000D03*
%TD*%
%TO.C,C10*%
X157725000Y-71910000D03*
X158860000Y-71910000D03*
%TD*%
D38*
%TO.C,D2*%
X155495000Y-94190000D03*
X154350000Y-94190000D03*
%TD*%
D20*
%TO.C,C40*%
X148145000Y-103490000D03*
X149280000Y-103490000D03*
%TD*%
%TO.C,C7*%
X153805000Y-84870000D03*
X154940000Y-84870000D03*
%TD*%
D38*
%TO.C,D1*%
X155497500Y-95290000D03*
X154352500Y-95290000D03*
%TD*%
D39*
%TO.C,U4*%
X122211300Y-135394915D03*
X122211300Y-133694916D03*
X122211300Y-131994914D03*
X122211300Y-130294915D03*
X122211300Y-128594916D03*
D40*
X112457700Y-131994914D03*
%TD*%
D41*
%TO.C,C23*%
X126100000Y-84690000D03*
X126100000Y-85825000D03*
%TD*%
D42*
%TO.C,C33*%
X122780000Y-84142500D03*
X122780000Y-86217500D03*
%TD*%
D22*
%TO.C,C2*%
X151890000Y-116690000D03*
X150755000Y-116690000D03*
%TD*%
D43*
%TO.C,U5*%
X139719998Y-125980000D03*
X140669999Y-125980000D03*
X141620000Y-125980000D03*
X141620000Y-123046300D03*
X140669999Y-123046300D03*
X139719998Y-123046300D03*
%TD*%
D24*
%TO.C,C4*%
X125300000Y-134842414D03*
X125300000Y-133707414D03*
%TD*%
M02*
