%TF.GenerationSoftware,KiCad,Pcbnew,9.0.6*%
%TF.CreationDate,2026-07-20T12:39:40-05:00*%
%TF.ProjectId,STM32H755_DevBoard,53544d33-3248-4373-9535-5f446576426f,rev?*%
%TF.SameCoordinates,Original*%
%TF.FileFunction,Soldermask,Top*%
%TF.FilePolarity,Negative*%
%FSLAX46Y46*%
G04 Gerber Fmt 4.6, Leading zero omitted, Abs format (unit mm)*
G04 Created by KiCad (PCBNEW 9.0.6) date 2026-07-20 12:39:40*
%MOMM*%
%LPD*%
G01*
G04 APERTURE LIST*
G04 Aperture macros list*
%AMRoundRect*
0 Rectangle with rounded corners*
0 $1 Rounding radius*
0 $2 $3 $4 $5 $6 $7 $8 $9 X,Y pos of 4 corners*
0 Add a 4 corners polygon primitive as box body*
4,1,4,$2,$3,$4,$5,$6,$7,$8,$9,$2,$3,0*
0 Add four circle primitives for the rounded corners*
1,1,$1+$1,$2,$3*
1,1,$1+$1,$4,$5*
1,1,$1+$1,$6,$7*
1,1,$1+$1,$8,$9*
0 Add four rect primitives between the rounded corners*
20,1,$1+$1,$2,$3,$4,$5,0*
20,1,$1+$1,$4,$5,$6,$7,0*
20,1,$1+$1,$6,$7,$8,$9,0*
20,1,$1+$1,$8,$9,$2,$3,0*%
%AMFreePoly0*
4,1,6,1.000000,0.000000,0.500000,-0.750000,-0.500000,-0.750000,-0.500000,0.750000,0.500000,0.750000,1.000000,0.000000,1.000000,0.000000,$1*%
G04 Aperture macros list end*
%ADD10C,0.010000*%
%ADD11RoundRect,0.250000X-0.337500X-0.475000X0.337500X-0.475000X0.337500X0.475000X-0.337500X0.475000X0*%
%ADD12RoundRect,0.100000X0.100000X-0.217500X0.100000X0.217500X-0.100000X0.217500X-0.100000X-0.217500X0*%
%ADD13RoundRect,0.100000X0.217500X0.100000X-0.217500X0.100000X-0.217500X-0.100000X0.217500X-0.100000X0*%
%ADD14RoundRect,0.100000X-0.217500X-0.100000X0.217500X-0.100000X0.217500X0.100000X-0.217500X0.100000X0*%
%ADD15RoundRect,0.100000X-0.100000X0.217500X-0.100000X-0.217500X0.100000X-0.217500X0.100000X0.217500X0*%
%ADD16RoundRect,0.102000X-0.750000X0.275000X-0.750000X-0.275000X0.750000X-0.275000X0.750000X0.275000X0*%
%ADD17RoundRect,0.102000X-1.100000X0.600000X-1.100000X-0.600000X1.100000X-0.600000X1.100000X0.600000X0*%
%ADD18RoundRect,0.102000X-0.750000X0.800000X-0.750000X-0.800000X0.750000X-0.800000X0.750000X0.800000X0*%
%ADD19RoundRect,0.102000X-0.900000X0.600000X-0.900000X-0.600000X0.900000X-0.600000X0.900000X0.600000X0*%
%ADD20RoundRect,0.102000X-0.800000X0.350000X-0.800000X-0.350000X0.800000X-0.350000X0.800000X0.350000X0*%
%ADD21C,1.000000*%
%ADD22RoundRect,0.155000X-0.212500X-0.155000X0.212500X-0.155000X0.212500X0.155000X-0.212500X0.155000X0*%
%ADD23RoundRect,0.250000X-1.400000X-1.000000X1.400000X-1.000000X1.400000X1.000000X-1.400000X1.000000X0*%
%ADD24RoundRect,0.155000X0.212500X0.155000X-0.212500X0.155000X-0.212500X-0.155000X0.212500X-0.155000X0*%
%ADD25R,0.406400X1.473200*%
%ADD26RoundRect,0.155000X0.155000X-0.212500X0.155000X0.212500X-0.155000X0.212500X-0.155000X-0.212500X0*%
%ADD27RoundRect,0.237500X-0.237500X0.300000X-0.237500X-0.300000X0.237500X-0.300000X0.237500X0.300000X0*%
%ADD28RoundRect,0.250000X1.045000X-0.785000X1.045000X0.785000X-1.045000X0.785000X-1.045000X-0.785000X0*%
%ADD29R,1.700000X1.700000*%
%ADD30RoundRect,0.237500X-0.300000X-0.237500X0.300000X-0.237500X0.300000X0.237500X-0.300000X0.237500X0*%
%ADD31C,1.700000*%
%ADD32FreePoly0,0.000000*%
%ADD33FreePoly0,180.000000*%
%ADD34RoundRect,0.155000X0.259862X-0.040659X-0.040659X0.259862X-0.259862X0.040659X0.040659X-0.259862X0*%
%ADD35R,0.304800X0.914400*%
%ADD36R,2.489200X1.752600*%
%ADD37RoundRect,0.075000X0.662500X0.075000X-0.662500X0.075000X-0.662500X-0.075000X0.662500X-0.075000X0*%
%ADD38RoundRect,0.075000X0.075000X0.662500X-0.075000X0.662500X-0.075000X-0.662500X0.075000X-0.662500X0*%
%ADD39RoundRect,0.250000X-1.050000X-1.050000X1.050000X-1.050000X1.050000X1.050000X-1.050000X1.050000X0*%
%ADD40C,2.600000*%
%ADD41RoundRect,0.250000X1.400000X1.000000X-1.400000X1.000000X-1.400000X-1.000000X1.400000X-1.000000X0*%
%ADD42RoundRect,0.250000X0.350000X-0.450000X0.350000X0.450000X-0.350000X0.450000X-0.350000X-0.450000X0*%
%ADD43O,1.254000X2.354000*%
%ADD44O,1.254000X2.054000*%
%ADD45RoundRect,0.237500X-0.287500X-0.237500X0.287500X-0.237500X0.287500X0.237500X-0.287500X0.237500X0*%
%ADD46RoundRect,0.160000X0.222500X0.160000X-0.222500X0.160000X-0.222500X-0.160000X0.222500X-0.160000X0*%
%ADD47R,3.810000X0.965200*%
%ADD48R,10.668000X10.769600*%
%ADD49RoundRect,0.155000X-0.155000X0.212500X-0.155000X-0.212500X0.155000X-0.212500X0.155000X0.212500X0*%
%ADD50RoundRect,0.250000X-0.475000X0.337500X-0.475000X-0.337500X0.475000X-0.337500X0.475000X0.337500X0*%
%ADD51R,0.558800X1.181100*%
G04 APERTURE END LIST*
%TO.C,JP1*%
G36*
X151820000Y-120910000D02*
G01*
X156820000Y-120910000D01*
X156820000Y-122410000D01*
X151820000Y-122410000D01*
X151820000Y-120910000D01*
G37*
D10*
%TO.C,J1*%
X138400000Y-131850000D02*
X137800000Y-131850000D01*
X137800000Y-130700000D01*
X138400000Y-130700000D01*
X138400000Y-131850000D01*
G36*
X138400000Y-131850000D02*
G01*
X137800000Y-131850000D01*
X137800000Y-130700000D01*
X138400000Y-130700000D01*
X138400000Y-131850000D01*
G37*
X138900000Y-131850000D02*
X138600000Y-131850000D01*
X138600000Y-130700000D01*
X138900000Y-130700000D01*
X138900000Y-131850000D01*
G36*
X138900000Y-131850000D02*
G01*
X138600000Y-131850000D01*
X138600000Y-130700000D01*
X138900000Y-130700000D01*
X138900000Y-131850000D01*
G37*
X139400000Y-131850000D02*
X139100000Y-131850000D01*
X139100000Y-130700000D01*
X139400000Y-130700000D01*
X139400000Y-131850000D01*
G36*
X139400000Y-131850000D02*
G01*
X139100000Y-131850000D01*
X139100000Y-130700000D01*
X139400000Y-130700000D01*
X139400000Y-131850000D01*
G37*
X139900000Y-131850000D02*
X139600000Y-131850000D01*
X139600000Y-130700000D01*
X139900000Y-130700000D01*
X139900000Y-131850000D01*
G36*
X139900000Y-131850000D02*
G01*
X139600000Y-131850000D01*
X139600000Y-130700000D01*
X139900000Y-130700000D01*
X139900000Y-131850000D01*
G37*
X140400000Y-131850000D02*
X140100000Y-131850000D01*
X140100000Y-130700000D01*
X140400000Y-130700000D01*
X140400000Y-131850000D01*
G36*
X140400000Y-131850000D02*
G01*
X140100000Y-131850000D01*
X140100000Y-130700000D01*
X140400000Y-130700000D01*
X140400000Y-131850000D01*
G37*
X140900000Y-131850000D02*
X140600000Y-131850000D01*
X140600000Y-130700000D01*
X140900000Y-130700000D01*
X140900000Y-131850000D01*
G36*
X140900000Y-131850000D02*
G01*
X140600000Y-131850000D01*
X140600000Y-130700000D01*
X140900000Y-130700000D01*
X140900000Y-131850000D01*
G37*
X141400000Y-131850000D02*
X141100000Y-131850000D01*
X141100000Y-130700000D01*
X141400000Y-130700000D01*
X141400000Y-131850000D01*
G36*
X141400000Y-131850000D02*
G01*
X141100000Y-131850000D01*
X141100000Y-130700000D01*
X141400000Y-130700000D01*
X141400000Y-131850000D01*
G37*
X141900000Y-131850000D02*
X141600000Y-131850000D01*
X141600000Y-130700000D01*
X141900000Y-130700000D01*
X141900000Y-131850000D01*
G36*
X141900000Y-131850000D02*
G01*
X141600000Y-131850000D01*
X141600000Y-130700000D01*
X141900000Y-130700000D01*
X141900000Y-131850000D01*
G37*
X142400000Y-131850000D02*
X142100000Y-131850000D01*
X142100000Y-130700000D01*
X142400000Y-130700000D01*
X142400000Y-131850000D01*
G36*
X142400000Y-131850000D02*
G01*
X142100000Y-131850000D01*
X142100000Y-130700000D01*
X142400000Y-130700000D01*
X142400000Y-131850000D01*
G37*
X143200000Y-131850000D02*
X142600000Y-131850000D01*
X142600000Y-130700000D01*
X143200000Y-130700000D01*
X143200000Y-131850000D01*
G36*
X143200000Y-131850000D02*
G01*
X142600000Y-131850000D01*
X142600000Y-130700000D01*
X143200000Y-130700000D01*
X143200000Y-131850000D01*
G37*
X144000000Y-131850000D02*
X143400000Y-131850000D01*
X143400000Y-130700000D01*
X144000000Y-130700000D01*
X144000000Y-131850000D01*
G36*
X144000000Y-131850000D02*
G01*
X143400000Y-131850000D01*
X143400000Y-130700000D01*
X144000000Y-130700000D01*
X144000000Y-131850000D01*
G37*
%TD*%
D11*
%TO.C,C3*%
X153352500Y-119590000D03*
X155427500Y-119590000D03*
%TD*%
D12*
%TO.C,R35*%
X153430000Y-79505000D03*
X153430000Y-78690000D03*
%TD*%
D13*
%TO.C,R33*%
X134640000Y-104870000D03*
X133825000Y-104870000D03*
%TD*%
D14*
%TO.C,R32*%
X129360000Y-104930000D03*
X130175000Y-104930000D03*
%TD*%
D13*
%TO.C,R31*%
X131715000Y-105690000D03*
X130900000Y-105690000D03*
%TD*%
D14*
%TO.C,R30*%
X122945000Y-93760000D03*
X123760000Y-93760000D03*
%TD*%
%TO.C,R29*%
X124580000Y-94590000D03*
X125395000Y-94590000D03*
%TD*%
D13*
%TO.C,R28*%
X136215000Y-105620000D03*
X135400000Y-105620000D03*
%TD*%
D14*
%TO.C,R25*%
X151080000Y-113640000D03*
X151895000Y-113640000D03*
%TD*%
D15*
%TO.C,R24*%
X132930000Y-104992500D03*
X132930000Y-105807500D03*
%TD*%
%TO.C,R23*%
X130030000Y-103180000D03*
X130030000Y-103995000D03*
%TD*%
%TO.C,R22*%
X130840000Y-103180000D03*
X130840000Y-103995000D03*
%TD*%
%TO.C,R21*%
X133430000Y-103175000D03*
X133430000Y-103990000D03*
%TD*%
%TO.C,R20*%
X131660000Y-103172500D03*
X131660000Y-103987500D03*
%TD*%
D13*
%TO.C,R19*%
X127045000Y-93830000D03*
X126230000Y-93830000D03*
%TD*%
%TO.C,R18*%
X127045000Y-93080000D03*
X126230000Y-93080000D03*
%TD*%
D15*
%TO.C,R9*%
X150830000Y-70322500D03*
X150830000Y-71137500D03*
%TD*%
D14*
%TO.C,R8*%
X152487500Y-94290000D03*
X153302500Y-94290000D03*
%TD*%
%TO.C,R7*%
X152430000Y-95300000D03*
X153245000Y-95300000D03*
%TD*%
D15*
%TO.C,R6*%
X125120000Y-128207414D03*
X125120000Y-129022414D03*
%TD*%
D14*
%TO.C,R5*%
X143270000Y-127300000D03*
X144085000Y-127300000D03*
%TD*%
D13*
%TO.C,R4*%
X138085000Y-126860000D03*
X137270000Y-126860000D03*
%TD*%
%TO.C,R3*%
X150820000Y-121710000D03*
X150005000Y-121710000D03*
%TD*%
%TO.C,R2*%
X158625000Y-121630000D03*
X157810000Y-121630000D03*
%TD*%
D15*
%TO.C,R1*%
X143640000Y-104120000D03*
X143640000Y-104935000D03*
%TD*%
D16*
%TO.C,SW2*%
X157720000Y-66795000D03*
X157720000Y-70045000D03*
%TD*%
%TO.C,SW1*%
X154000000Y-66865000D03*
X154000000Y-70115000D03*
%TD*%
D17*
%TO.C,J2*%
X111970000Y-115250000D03*
D18*
X121520000Y-114350000D03*
D17*
X111970000Y-99750000D03*
D19*
X121270000Y-99750000D03*
D20*
X122570000Y-100950000D03*
X122570000Y-102050000D03*
X122570000Y-103150000D03*
X122570000Y-104250000D03*
X122570000Y-105350000D03*
X122570000Y-106450000D03*
X122570000Y-107550000D03*
X122570000Y-108650000D03*
X122570000Y-109750000D03*
D21*
X111570000Y-110550000D03*
X111570000Y-102550000D03*
%TD*%
D22*
%TO.C,C12*%
X146135000Y-104620000D03*
X147270000Y-104620000D03*
%TD*%
D23*
%TO.C,CR1*%
X133590000Y-116970000D03*
X133590000Y-123770000D03*
%TD*%
D24*
%TO.C,C14*%
X124280000Y-91910000D03*
X123145000Y-91910000D03*
%TD*%
D25*
%TO.C,U6*%
X153650001Y-126406000D03*
X154949999Y-126406000D03*
X154300000Y-124374000D03*
%TD*%
D26*
%TO.C,C26*%
X152540000Y-93260000D03*
X152540000Y-92125000D03*
%TD*%
D22*
%TO.C,C15*%
X138662500Y-78120000D03*
X139797500Y-78120000D03*
%TD*%
%TO.C,C22*%
X149325000Y-101870000D03*
X150460000Y-101870000D03*
%TD*%
D27*
%TO.C,C5*%
X126810000Y-133679914D03*
X126810000Y-135404914D03*
%TD*%
D28*
%TO.C,C6*%
X127690000Y-123950000D03*
X127690000Y-117710000D03*
%TD*%
D29*
%TO.C,J8*%
X108990000Y-119260000D03*
%TD*%
D26*
%TO.C,C42*%
X126050000Y-98225000D03*
X126050000Y-97090000D03*
%TD*%
D22*
%TO.C,C29*%
X150325000Y-79180000D03*
X151460000Y-79180000D03*
%TD*%
D30*
%TO.C,C38*%
X152565000Y-110840000D03*
X154290000Y-110840000D03*
%TD*%
D22*
%TO.C,C17*%
X153032500Y-97030000D03*
X154167500Y-97030000D03*
%TD*%
D29*
%TO.C,J6*%
X162540000Y-118350000D03*
D31*
X160000000Y-118350000D03*
X162540000Y-115810000D03*
X160000000Y-115810000D03*
X162540000Y-113270000D03*
X160000000Y-113270000D03*
X162540000Y-110730000D03*
X160000000Y-110730000D03*
X162540000Y-108190000D03*
X160000000Y-108190000D03*
X162540000Y-105650000D03*
X160000000Y-105650000D03*
X162540000Y-103110000D03*
X160000000Y-103110000D03*
X162540000Y-100570000D03*
X160000000Y-100570000D03*
X162540000Y-98030000D03*
X160000000Y-98030000D03*
X162540000Y-95490000D03*
X160000000Y-95490000D03*
X162540000Y-92950000D03*
X160000000Y-92950000D03*
X162540000Y-90410000D03*
X160000000Y-90410000D03*
X162540000Y-87870000D03*
X160000000Y-87870000D03*
X162540000Y-85330000D03*
X160000000Y-85330000D03*
X162540000Y-82790000D03*
X160000000Y-82790000D03*
X162540000Y-80250000D03*
X160000000Y-80250000D03*
X162540000Y-77710000D03*
X160000000Y-77710000D03*
X162540000Y-75170000D03*
X160000000Y-75170000D03*
%TD*%
D26*
%TO.C,C32*%
X125940000Y-91140000D03*
X125940000Y-90005000D03*
%TD*%
%TO.C,C35*%
X124880000Y-106330000D03*
X124880000Y-105195000D03*
%TD*%
D22*
%TO.C,C44*%
X130345000Y-111220000D03*
X131480000Y-111220000D03*
%TD*%
D26*
%TO.C,C31*%
X127070000Y-91130000D03*
X127070000Y-89995000D03*
%TD*%
D29*
%TO.C,J7*%
X109000000Y-123630000D03*
%TD*%
D22*
%TO.C,C25*%
X145940000Y-77600000D03*
X147075000Y-77600000D03*
%TD*%
D32*
%TO.C,JP1*%
X152320000Y-121660000D03*
D33*
X156320000Y-121660000D03*
%TD*%
D34*
%TO.C,C39*%
X129410000Y-108010000D03*
X128607434Y-107207434D03*
%TD*%
D11*
%TO.C,C13*%
X142732500Y-109330000D03*
X144807500Y-109330000D03*
%TD*%
D34*
%TO.C,C20*%
X125920000Y-100220000D03*
X125117434Y-99417434D03*
%TD*%
D29*
%TO.C,J3*%
X109560000Y-82350000D03*
D31*
X109560000Y-84890000D03*
X109560000Y-87430000D03*
X109560000Y-89970000D03*
X109560000Y-92510000D03*
X109560000Y-95050000D03*
%TD*%
D24*
%TO.C,C24*%
X130390000Y-78770000D03*
X129255000Y-78770000D03*
%TD*%
D35*
%TO.C,U2*%
X155560000Y-113592800D03*
X154910002Y-113592800D03*
X154260000Y-113592800D03*
X153610002Y-113592800D03*
X153610002Y-116590000D03*
X154260000Y-116590000D03*
X154910002Y-116590000D03*
X155560000Y-116590000D03*
D36*
X154585001Y-115091400D03*
%TD*%
D24*
%TO.C,C21*%
X140635000Y-103380000D03*
X139500000Y-103380000D03*
%TD*%
D37*
%TO.C,U1*%
X150042500Y-99790000D03*
X150042500Y-99290000D03*
X150042500Y-98790000D03*
X150042500Y-98290000D03*
X150042500Y-97790000D03*
X150042500Y-97290000D03*
X150042500Y-96790000D03*
X150042500Y-96290000D03*
X150042500Y-95790000D03*
X150042500Y-95290000D03*
X150042500Y-94790000D03*
X150042500Y-94290000D03*
X150042500Y-93790000D03*
X150042500Y-93290000D03*
X150042500Y-92790000D03*
X150042500Y-92290000D03*
X150042500Y-91790000D03*
X150042500Y-91290000D03*
X150042500Y-90790000D03*
X150042500Y-90290000D03*
X150042500Y-89790000D03*
X150042500Y-89290000D03*
X150042500Y-88790000D03*
X150042500Y-88290000D03*
X150042500Y-87790000D03*
X150042500Y-87290000D03*
X150042500Y-86790000D03*
X150042500Y-86290000D03*
X150042500Y-85790000D03*
X150042500Y-85290000D03*
X150042500Y-84790000D03*
X150042500Y-84290000D03*
X150042500Y-83790000D03*
X150042500Y-83290000D03*
X150042500Y-82790000D03*
X150042500Y-82290000D03*
D38*
X148130000Y-80377500D03*
X147630000Y-80377500D03*
X147130000Y-80377500D03*
X146630000Y-80377500D03*
X146130000Y-80377500D03*
X145630000Y-80377500D03*
X145130000Y-80377500D03*
X144630000Y-80377500D03*
X144130000Y-80377500D03*
X143630000Y-80377500D03*
X143130000Y-80377500D03*
X142630000Y-80377500D03*
X142130000Y-80377500D03*
X141630000Y-80377500D03*
X141130000Y-80377500D03*
X140630000Y-80377500D03*
X140130000Y-80377500D03*
X139630000Y-80377500D03*
X139130000Y-80377500D03*
X138630000Y-80377500D03*
X138130000Y-80377500D03*
X137630000Y-80377500D03*
X137130000Y-80377500D03*
X136630000Y-80377500D03*
X136130000Y-80377500D03*
X135630000Y-80377500D03*
X135130000Y-80377500D03*
X134630000Y-80377500D03*
X134130000Y-80377500D03*
X133630000Y-80377500D03*
X133130000Y-80377500D03*
X132630000Y-80377500D03*
X132130000Y-80377500D03*
X131630000Y-80377500D03*
X131130000Y-80377500D03*
X130630000Y-80377500D03*
D37*
X128717500Y-82290000D03*
X128717500Y-82790000D03*
X128717500Y-83290000D03*
X128717500Y-83790000D03*
X128717500Y-84290000D03*
X128717500Y-84790000D03*
X128717500Y-85290000D03*
X128717500Y-85790000D03*
X128717500Y-86290000D03*
X128717500Y-86790000D03*
X128717500Y-87290000D03*
X128717500Y-87790000D03*
X128717500Y-88290000D03*
X128717500Y-88790000D03*
X128717500Y-89290000D03*
X128717500Y-89790000D03*
X128717500Y-90290000D03*
X128717500Y-90790000D03*
X128717500Y-91290000D03*
X128717500Y-91790000D03*
X128717500Y-92290000D03*
X128717500Y-92790000D03*
X128717500Y-93290000D03*
X128717500Y-93790000D03*
X128717500Y-94290000D03*
X128717500Y-94790000D03*
X128717500Y-95290000D03*
X128717500Y-95790000D03*
X128717500Y-96290000D03*
X128717500Y-96790000D03*
X128717500Y-97290000D03*
X128717500Y-97790000D03*
X128717500Y-98290000D03*
X128717500Y-98790000D03*
X128717500Y-99290000D03*
X128717500Y-99790000D03*
D38*
X130630000Y-101702500D03*
X131130000Y-101702500D03*
X131630000Y-101702500D03*
X132130000Y-101702500D03*
X132630000Y-101702500D03*
X133130000Y-101702500D03*
X133630000Y-101702500D03*
X134130000Y-101702500D03*
X134630000Y-101702500D03*
X135130000Y-101702500D03*
X135630000Y-101702500D03*
X136130000Y-101702500D03*
X136630000Y-101702500D03*
X137130000Y-101702500D03*
X137630000Y-101702500D03*
X138130000Y-101702500D03*
X138630000Y-101702500D03*
X139130000Y-101702500D03*
X139630000Y-101702500D03*
X140130000Y-101702500D03*
X140630000Y-101702500D03*
X141130000Y-101702500D03*
X141630000Y-101702500D03*
X142130000Y-101702500D03*
X142630000Y-101702500D03*
X143130000Y-101702500D03*
X143630000Y-101702500D03*
X144130000Y-101702500D03*
X144630000Y-101702500D03*
X145130000Y-101702500D03*
X145630000Y-101702500D03*
X146130000Y-101702500D03*
X146630000Y-101702500D03*
X147130000Y-101702500D03*
X147630000Y-101702500D03*
X148130000Y-101702500D03*
%TD*%
D24*
%TO.C,C1*%
X154280000Y-112050000D03*
X153145000Y-112050000D03*
%TD*%
D39*
%TO.C,J5*%
X149190000Y-133550000D03*
D40*
X154270000Y-133550000D03*
X159350000Y-133550000D03*
%TD*%
D24*
%TO.C,C41*%
X131385000Y-77700000D03*
X130250000Y-77700000D03*
%TD*%
D41*
%TO.C,CR2*%
X131170000Y-136170000D03*
X131170000Y-129370000D03*
%TD*%
D22*
%TO.C,C16*%
X135990000Y-103310000D03*
X137125000Y-103310000D03*
%TD*%
D26*
%TO.C,C9*%
X151710000Y-71007500D03*
X151710000Y-69872500D03*
%TD*%
D29*
%TO.C,J9*%
X109600000Y-74710000D03*
%TD*%
D42*
%TO.C,Y1*%
X155520000Y-88590000D03*
X155520000Y-86390000D03*
X153820000Y-86390000D03*
X153820000Y-88590000D03*
%TD*%
D22*
%TO.C,C30*%
X150355000Y-78100000D03*
X151490000Y-78100000D03*
%TD*%
%TO.C,C28*%
X152005000Y-82420000D03*
X153140000Y-82420000D03*
%TD*%
%TO.C,C8*%
X155505000Y-90200000D03*
X156640000Y-90200000D03*
%TD*%
D43*
%TO.C,J1*%
X136180000Y-131850000D03*
D44*
X136180000Y-136000000D03*
D43*
X144820000Y-131850000D03*
D44*
X144820000Y-136000000D03*
%TD*%
D45*
%TO.C,FB1*%
X153280000Y-76620000D03*
X155030000Y-76620000D03*
%TD*%
D26*
%TO.C,C19*%
X151690000Y-84707500D03*
X151690000Y-83572500D03*
%TD*%
%TO.C,C18*%
X151600000Y-90697500D03*
X151600000Y-89562500D03*
%TD*%
D22*
%TO.C,C11*%
X132975000Y-78030000D03*
X134110000Y-78030000D03*
%TD*%
D27*
%TO.C,C34*%
X126290000Y-104717500D03*
X126290000Y-106442500D03*
%TD*%
D22*
%TO.C,C27*%
X151995000Y-81340000D03*
X153130000Y-81340000D03*
%TD*%
%TO.C,C10*%
X157725000Y-71910000D03*
X158860000Y-71910000D03*
%TD*%
D46*
%TO.C,D2*%
X155495000Y-94190000D03*
X154350000Y-94190000D03*
%TD*%
D22*
%TO.C,C40*%
X148145000Y-103490000D03*
X149280000Y-103490000D03*
%TD*%
%TO.C,C7*%
X153805000Y-84870000D03*
X154940000Y-84870000D03*
%TD*%
D29*
%TO.C,J10*%
X161450000Y-123980000D03*
%TD*%
D46*
%TO.C,D1*%
X155497500Y-95290000D03*
X154352500Y-95290000D03*
%TD*%
D47*
%TO.C,U4*%
X122211300Y-135394915D03*
X122211300Y-133694916D03*
X122211300Y-131994914D03*
X122211300Y-130294915D03*
X122211300Y-128594916D03*
D48*
X112457700Y-131994914D03*
%TD*%
D29*
%TO.C,J11*%
X147900000Y-66080000D03*
D31*
X147900000Y-68620000D03*
X145360000Y-66080000D03*
X145360000Y-68620000D03*
X142820000Y-66080000D03*
X142820000Y-68620000D03*
X140280000Y-66080000D03*
X140280000Y-68620000D03*
X137740000Y-66080000D03*
X137740000Y-68620000D03*
X135200000Y-66080000D03*
X135200000Y-68620000D03*
X132660000Y-66080000D03*
X132660000Y-68620000D03*
X130120000Y-66080000D03*
X130120000Y-68620000D03*
X127580000Y-66080000D03*
X127580000Y-68620000D03*
X125040000Y-66080000D03*
X125040000Y-68620000D03*
X122500000Y-66080000D03*
X122500000Y-68620000D03*
X119960000Y-66080000D03*
X119960000Y-68620000D03*
X117420000Y-66080000D03*
X117420000Y-68620000D03*
X114880000Y-66080000D03*
X114880000Y-68620000D03*
X112340000Y-66080000D03*
X112340000Y-68620000D03*
X109800000Y-66080000D03*
X109800000Y-68620000D03*
%TD*%
D49*
%TO.C,C23*%
X126100000Y-84690000D03*
X126100000Y-85825000D03*
%TD*%
D50*
%TO.C,C33*%
X122780000Y-84142500D03*
X122780000Y-86217500D03*
%TD*%
D24*
%TO.C,C2*%
X151890000Y-116690000D03*
X150755000Y-116690000D03*
%TD*%
D51*
%TO.C,U5*%
X139719998Y-125980000D03*
X140669999Y-125980000D03*
X141620000Y-125980000D03*
X141620000Y-123046300D03*
X140669999Y-123046300D03*
X139719998Y-123046300D03*
%TD*%
D26*
%TO.C,C4*%
X125300000Y-134842414D03*
X125300000Y-133707414D03*
%TD*%
M02*
